<svg xmlns="http://www.w3.org/2000/svg" xmlns:svg="http://www.w3.org/2000/svg" id="svg5760" width="76.074" height="76.074" version="1.1" viewBox="0 0 71.319 71.319"><defs id="defs5762"><clipPath id="clipPath12124-3" clipPathUnits="userSpaceOnUse"><ellipse id="circle12126-7" cx="-494.575" cy="312.693" rx="42.605" ry="47.479" transform="matrix(0.8096571,-0.58690322,0.468272,0.88358436,0,0)" style="fill:#e59728;fill-opacity:1;stroke:none"/></clipPath></defs><metadata id="metadata5765"/><g id="layer1" transform="translate(679.65265,-1173.8454)"><g id="g12392" transform="translate(-377.21802,517.84762)"><g style="fill:#e59728;fill-opacity:1" id="g10864" clip-path="url(#clipPath12124-3)" transform="matrix(0.74683769,0.44514588,-0.39580056,0.61409702,147.17391,456.80737)"><g id="g10866" transform="translate(-192.33305,47.376155)" style="fill:#e59728;stroke:none"><path id="path10868" d="m -78.995148,455.629 50.713394,-5.2706 -65.202934,4.78271 z" style="fill:#e48f2c;stroke:none;stroke-width:1"/><path id="path10870" d="m -78.995148,455.629 28.979088,3.70236 21.734306,-8.97296 z" style="fill:#e49928;stroke:none;stroke-width:1"/><path id="path10872" d="m -78.995148,455.629 14.48954,18.14026 14.489548,-14.4379 z" style="fill:#e59b29;stroke:none;stroke-width:1"/><path id="path10874" d="m -50.01606,459.33136 28.97908,3.00763 -7.244774,-11.98059 z" style="fill:#e49529;stroke:none;stroke-width:1"/><path id="path10876" d="m -78.995148,455.629 7.244774,25.58755 7.244766,-7.44729 z" style="fill:#e49e2b;stroke:none;stroke-width:1"/><path id="path10878" d="m -93.484688,455.14111 21.734314,26.07544 -7.244774,-25.58755 z" style="fill:#e38e29;stroke:none;stroke-width:1"/><path id="path10880" d="m -71.750374,481.21655 14.48954,7.56958 -7.244774,-15.01687 z" style="fill:#e4962c;stroke:none;stroke-width:1"/><path id="path10882" d="m -57.260834,488.78613 7.244774,-29.45477 -14.489548,14.4379 z" style="fill:#e39f2e;stroke:none;stroke-width:1"/><path id="path10884" d="m -57.260834,488.78613 36.223854,-26.44714 -28.97908,-3.00763 z" style="fill:#e39129;stroke:none;stroke-width:1"/><path id="path10886" d="m -57.260834,488.78613 43.468628,9.44757 -7.244774,-35.89471 z" style="fill:#e29d28;stroke:none;stroke-width:1"/><path id="path10888" d="M 0.6973345,507.29727 -21.03698,462.33899 -13.792206,498.2337 Z" style="fill:#e5932a;stroke:none;stroke-width:1"/><path id="path10890" d="m -115.219,509.53561 21.734312,-54.3945 -28.979092,51.60743 z" style="fill:#e5932a;stroke:none;stroke-width:1"/><path id="path10892" d="m -115.219,509.53561 43.468626,-28.31906 -21.734314,-26.07544 z" style="fill:#e5982a;stroke:none;stroke-width:1"/><path id="path10894" d="m -129.70856,535.66724 7.24478,-28.9187 -14.48954,23.91558 z" style="fill:#e5992a;stroke:none;stroke-width:1"/><path id="path10896" d="m -129.70856,535.66724 14.48956,-26.13163 -7.24478,-2.78707 z" style="fill:#e59829;stroke:none;stroke-width:1"/><path id="path10898" d="m -100.72946,538.91125 28.979086,-57.6947 -43.468626,28.31906 z" style="fill:#e48e28;stroke:none;stroke-width:1"/><path id="path10900" d="m -86.239922,544.33649 14.489548,-63.11994 -28.979086,57.6947 z" style="fill:#e2a62d;stroke:none;stroke-width:1"/><path id="path10902" d="m -129.70856,535.66724 28.9791,3.24401 -14.48954,-29.37564 z" style="fill:#e4992c;stroke:none;stroke-width:1"/><path id="path10904" d="m -86.239922,544.33649 28.979088,-55.55036 -14.48954,-7.56958 z" style="fill:#e2922c;stroke:none;stroke-width:1"/><path id="path10906" d="m -42.771294,554.57153 28.979088,-56.33783 -43.468628,-9.44757 z" style="fill:#e39d2a;stroke:none;stroke-width:1"/><path id="path10908" d="m -86.239922,544.33649 43.468628,10.23504 -14.48954,-65.7854 z" style="fill:#e18429;stroke:none;stroke-width:1"/><path id="path10910" d="M -42.771294,554.57153 0.6973345,507.29727 -13.792206,498.2337 Z" style="fill:#e5ae2d;stroke:none;stroke-width:1"/><path id="path10912" d="M -35.52652,559.67303 0.6973345,507.29727 -42.771294,554.57153 Z" style="fill:#e29c2a;stroke:none;stroke-width:1"/><path id="path10914" d="m -129.70856,535.66724 21.73432,31.61224 7.24478,-28.36823 z" style="fill:#e4a12c;stroke:none;stroke-width:1"/><path id="path10916" d="m -107.97424,567.27948 21.734318,-22.94299 -14.489538,-5.42524 z" style="fill:#e39428;stroke:none;stroke-width:1"/><path id="path10918" d="M -6.5474322,577.82184 0.6973345,507.29727 -35.52652,559.67303 Z" style="fill:#e3a030;stroke:none;stroke-width:1"/><path id="path10920" d="m -107.97424,567.27948 65.202946,-12.70795 -43.468628,-10.23504 z" style="fill:#e08f27;stroke:none;stroke-width:1"/><path id="path10922" d="m -107.97424,567.27948 72.44772,-7.60645 -7.244774,-5.1015 z" style="fill:#e1842a;stroke:none;stroke-width:1"/><path id="path10924" d="m -136.95332,530.66412 28.97908,36.61536 -21.73432,-31.61224 z" style="fill:#e5922b;stroke:none;stroke-width:1"/><path id="path10926" d="M -107.97424,567.27948 -6.5474322,577.82184 -35.52652,559.67303 Z" style="fill:#e1a828;stroke:none;stroke-width:1"/><path id="path10928" d="m -93.484688,455.14111 -43.468632,75.52301 14.48954,-23.91558 z" style="fill:#e59c26;stroke:none;stroke-width:1"/></g><g style="fill:#e59728;stroke:none" id="g10930" transform="translate(-192.33305,47.376155)"><path style="fill:#e48f2c;stroke:none;stroke-width:1" id="path10932" d="m -78.995148,455.629 50.713394,-5.2706 -65.202934,4.78271 z"/><path style="fill:#e49928;stroke:none;stroke-width:1" id="path10934" d="m -78.995148,455.629 28.979088,3.70236 21.734306,-8.97296 z"/><path style="fill:#e59b29;stroke:none;stroke-width:1" id="path10936" d="m -78.995148,455.629 14.48954,18.14026 14.489548,-14.4379 z"/><path style="fill:#e49529;stroke:none;stroke-width:1" id="path10938" d="m -50.01606,459.33136 28.97908,3.00763 -7.244774,-11.98059 z"/><path style="fill:#e49e2b;stroke:none;stroke-width:1" id="path10940" d="m -78.995148,455.629 7.244774,25.58755 7.244766,-7.44729 z"/><path style="fill:#e38e29;stroke:none;stroke-width:1" id="path10942" d="m -93.484688,455.14111 21.734314,26.07544 -7.244774,-25.58755 z"/><path style="fill:#e4962c;stroke:none;stroke-width:1" id="path10944" d="m -71.750374,481.21655 14.48954,7.56958 -7.244774,-15.01687 z"/><path style="fill:#e39f2e;stroke:none;stroke-width:1" id="path10946" d="m -57.260834,488.78613 7.244774,-29.45477 -14.489548,14.4379 z"/><path style="fill:#e39129;stroke:none;stroke-width:1" id="path10948" d="m -57.260834,488.78613 36.223854,-26.44714 -28.97908,-3.00763 z"/><path style="fill:#e29d28;stroke:none;stroke-width:1" id="path10950" d="m -57.260834,488.78613 43.468628,9.44757 -7.244774,-35.89471 z"/><path style="fill:#e5932a;stroke:none;stroke-width:1" id="path10952" d="M 0.6973345,507.29727 -21.03698,462.33899 -13.792206,498.2337 Z"/><path style="fill:#e5932a;stroke:none;stroke-width:1" id="path10954" d="m -115.219,509.53561 21.734312,-54.3945 -28.979092,51.60743 z"/><path style="fill:#e5982a;stroke:none;stroke-width:1" id="path10956" d="m -115.219,509.53561 43.468626,-28.31906 -21.734314,-26.07544 z"/><path style="fill:#e5992a;stroke:none;stroke-width:1" id="path10958" d="m -129.70856,535.66724 7.24478,-28.9187 -14.48954,23.91558 z"/><path style="fill:#e59829;stroke:none;stroke-width:1" id="path10960" d="m -129.70856,535.66724 14.48956,-26.13163 -7.24478,-2.78707 z"/><path style="fill:#e48e28;stroke:none;stroke-width:1" id="path10962" d="m -100.72946,538.91125 28.979086,-57.6947 -43.468626,28.31906 z"/><path style="fill:#e2a62d;stroke:none;stroke-width:1" id="path10964" d="m -86.239922,544.33649 14.489548,-63.11994 -28.979086,57.6947 z"/><path style="fill:#e4992c;stroke:none;stroke-width:1" id="path10966" d="m -129.70856,535.66724 28.9791,3.24401 -14.48954,-29.37564 z"/><path style="fill:#e2922c;stroke:none;stroke-width:1" id="path10968" d="m -86.239922,544.33649 28.979088,-55.55036 -14.48954,-7.56958 z"/><path style="fill:#e39d2a;stroke:none;stroke-width:1" id="path10970" d="m -42.771294,554.57153 28.979088,-56.33783 -43.468628,-9.44757 z"/><path style="fill:#e18429;stroke:none;stroke-width:1" id="path10972" d="m -86.239922,544.33649 43.468628,10.23504 -14.48954,-65.7854 z"/><path style="fill:#e5ae2d;stroke:none;stroke-width:1" id="path10974" d="M -42.771294,554.57153 0.6973345,507.29727 -13.792206,498.2337 Z"/><path style="fill:#e29c2a;stroke:none;stroke-width:1" id="path10976" d="M -35.52652,559.67303 0.6973345,507.29727 -42.771294,554.57153 Z"/><path style="fill:#e4a12c;stroke:none;stroke-width:1" id="path10978" d="m -129.70856,535.66724 21.73432,31.61224 7.24478,-28.36823 z"/><path style="fill:#e39428;stroke:none;stroke-width:1" id="path10980" d="m -107.97424,567.27948 21.734318,-22.94299 -14.489538,-5.42524 z"/><path style="fill:#e3a030;stroke:none;stroke-width:1" id="path10982" d="M -6.5474322,577.82184 0.6973345,507.29727 -35.52652,559.67303 Z"/><path style="fill:#e08f27;stroke:none;stroke-width:1" id="path10984" d="m -107.97424,567.27948 65.202946,-12.70795 -43.468628,-10.23504 z"/><path style="fill:#e1842a;stroke:none;stroke-width:1" id="path10986" d="m -107.97424,567.27948 72.44772,-7.60645 -7.244774,-5.1015 z"/><path style="fill:#e5922b;stroke:none;stroke-width:1" id="path10988" d="m -136.95332,530.66412 28.97908,36.61536 -21.73432,-31.61224 z"/><path style="fill:#e1a828;stroke:none;stroke-width:1" id="path10990" d="M -107.97424,567.27948 -6.5474322,577.82184 -35.52652,559.67303 Z"/><path style="fill:#e59c26;stroke:none;stroke-width:1" id="path10992" d="m -93.484688,455.14111 -43.468632,75.52301 14.48954,-23.91558 z"/></g></g><g style="fill:#fff" id="g11002" transform="matrix(0.24013272,0,0,0.24013272,-861.23021,347.50396)"><rect id="rect11004" width="42.426" height="169.706" x="1357.967" y="-2560.38" rx="14.142" ry="14.142" transform="rotate(90)" style="fill:#fff;fill-opacity:1;stroke:none"/><rect style="fill:#fff;fill-opacity:1;stroke:none" id="rect11006" width="42.426" height="169.706" x="1411.967" y="-2560.38" rx="14.142" ry="14.142" transform="rotate(90)"/><rect id="rect11008" width="42.426" height="169.706" x="1465.967" y="-2560.38" rx="14.142" ry="14.142" transform="rotate(90)" style="fill:#fff;fill-opacity:1;stroke:none"/></g></g></g></svg>